HIERARCHY
ROOT laydown
{
	OFFSET 0.000000 0.000000 0.000000
	CHANNELS 6 Xposition Yposition Zposition Xrotation Yrotation Zrotation
	JOINT Spine_01
	{
		OFFSET 0.000000 138.184219 -44.816219
		CHANNELS 3 Xrotation Yrotation Zrotation
		JOINT Spine_02
		{
			OFFSET -0.000004 -4.180267 28.050579
			CHANNELS 3 Xrotation Yrotation Zrotation
			JOINT Spine_03
			{
				OFFSET -0.000004 -2.923813 35.501564
				CHANNELS 3 Xrotation Yrotation Zrotation
				JOINT Spine_04
				{
					OFFSET -0.000006 1.220093 39.223053
					CHANNELS 3 Xrotation Yrotation Zrotation
					JOINT Neck_Base
					{
						OFFSET -0.000056 3.589035 29.437286
						CHANNELS 3 Xrotation Yrotation Zrotation
						JOINT Neck_01
						{
							OFFSET -0.041267 17.877167 9.460503
							CHANNELS 3 Xrotation Yrotation Zrotation
							JOINT Neck_02
							{
								OFFSET -0.087717 15.300079 15.305389
								CHANNELS 3 Xrotation Yrotation Zrotation
								JOINT Head
								{
									OFFSET 0.128577 15.540497 15.523819
									CHANNELS 3 Xrotation Yrotation Zrotation
									JOINT L_Ear
									{
										OFFSET 8.543181 16.284744 9.196167
										CHANNELS 3 Xrotation Yrotation Zrotation
										End Site
										{
											OFFSET 6.240143 6.340454 -14.343666
										}
									}
									JOINT R_Ear
									{
										OFFSET -7.275110 17.144165 8.712173
										CHANNELS 3 Xrotation Yrotation Zrotation
										End Site
										{
											OFFSET 4.631680 -6.931000 14.676193
										}
									}
									JOINT Jaw
									{
										OFFSET -0.485261 -4.110306 8.566055
										CHANNELS 3 Xrotation Yrotation Zrotation
										End Site
										{
											OFFSET 0.974797 16.705658 -2.202789
										}
									}
								}
							}
						}
					}
					JOINT R_Scapula
					{
						OFFSET -6.756385 17.541763 7.673988
						CHANNELS 3 Xrotation Yrotation Zrotation
						JOINT R_Shoulder
						{
							OFFSET -4.012974 -35.522552 22.005066
							CHANNELS 3 Xrotation Yrotation Zrotation
							JOINT R_Front_UpperLeg
							{
								OFFSET -3.178897 -27.349785 -18.723984
								CHANNELS 3 Xrotation Yrotation Zrotation
								JOINT R_Front_LowerLeg
								{
									OFFSET 1.576682 -39.718472 2.864098
									CHANNELS 3 Xrotation Yrotation Zrotation
									JOINT R_Front_Ankle
									{
										OFFSET 1.212199 -30.536831 2.201958
										CHANNELS 3 Xrotation Yrotation Zrotation
										JOINT R_Front_Hoof
										{
											OFFSET -0.000008 -9.177129 4.105598
											CHANNELS 3 Xrotation Yrotation Zrotation
											End Site
											{
												OFFSET 0.000017 0.000012 -10.053642
											}
										}
									}
								}
							}
						}
					}
					JOINT L_Scapula
					{
						OFFSET 6.756220 17.541611 7.674042
						CHANNELS 3 Xrotation Yrotation Zrotation
						JOINT L_Shoulder
						{
							OFFSET 2.967469 -35.658783 21.949951
							CHANNELS 3 Xrotation Yrotation Zrotation
							JOINT L_Front_UpperLeg
							{
								OFFSET 1.995463 -26.938629 -19.468475
								CHANNELS 3 Xrotation Yrotation Zrotation
								JOINT L_Front_LowerLeg
								{
									OFFSET -0.864232 -39.609890 -4.305237
									CHANNELS 3 Xrotation Yrotation Zrotation
									JOINT L_Front_Ankle
									{
										OFFSET -0.664377 -30.452950 -3.313950
										CHANNELS 3 Xrotation Yrotation Zrotation
										JOINT L_Front_Hoof
										{
											OFFSET 0.004585 -9.221639 4.004440
											CHANNELS 3 Xrotation Yrotation Zrotation
											End Site
											{
												OFFSET 0.011362 -0.110423 10.052956
											}
										}
									}
								}
							}
						}
					}
				}
			}
		}
		JOINT L_Hip
		{
			OFFSET 14.887411 -7.729401 -12.131313
			CHANNELS 3 Xrotation Yrotation Zrotation
			JOINT L_Back_UpperLeg
			{
				OFFSET 0.000002 -34.478577 8.440952
				CHANNELS 3 Xrotation Yrotation Zrotation
				JOINT L_Back_LowerLeg
				{
					OFFSET -3.196042 -42.364540 -14.576752
					CHANNELS 3 Xrotation Yrotation Zrotation
					JOINT L_Back_Ankle
					{
						OFFSET 1.655677 -33.756046 12.931885
						CHANNELS 3 Xrotation Yrotation Zrotation
						JOINT L_Back_Hoof
						{
							OFFSET 0.582796 -11.035068 3.767300
							CHANNELS 3 Xrotation Yrotation Zrotation
							End Site
							{
								OFFSET 1.784864 0.000003 11.537727
							}
						}
					}
				}
			}
		}
		JOINT R_Hip
		{
			OFFSET -14.887404 -7.729279 -12.131306
			CHANNELS 3 Xrotation Yrotation Zrotation
			JOINT R_Back_UpperLeg
			{
				OFFSET -0.000001 -35.225853 4.378204
				CHANNELS 3 Xrotation Yrotation Zrotation
				JOINT R_Back_LowerLeg
				{
					OFFSET 3.960886 -39.350452 -21.290848
					CHANNELS 3 Xrotation Yrotation Zrotation
					JOINT R_Back_Ankle
					{
						OFFSET -0.902672 -36.023087 3.312683
						CHANNELS 3 Xrotation Yrotation Zrotation
						JOINT R_Back_Hoof
						{
							OFFSET -0.767580 -11.035016 3.734024
							CHANNELS 3 Xrotation Yrotation Zrotation
							End Site
							{
								OFFSET 2.350776 -0.000010 -11.435806
							}
						}
					}
				}
			}
		}
		JOINT Tail_01
		{
			OFFSET 0.000002 9.427826 -23.815632
			CHANNELS 3 Xrotation Yrotation Zrotation
			JOINT Tail_02
			{
				OFFSET -0.010280 -10.096970 -19.648132
				CHANNELS 3 Xrotation Yrotation Zrotation
				JOINT Tail_03
				{
					OFFSET -0.004988 -22.410088 -6.558182
					CHANNELS 3 Xrotation Yrotation Zrotation
					JOINT Tail_04
					{
						OFFSET -0.107969 -23.216454 -0.630173
						CHANNELS 3 Xrotation Yrotation Zrotation
						JOINT Tail_05
						{
							OFFSET -0.132747 -23.338974 1.137360
							CHANNELS 3 Xrotation Yrotation Zrotation
							End Site
							{
								OFFSET 0.310915 -1.139107 -23.337189
							}
						}
					}
				}
			}
		}
	}
}
MOTION
Frames: 6
Frame Time: 0.033333
0.000000 0.000000 0.000000 0.000006 0.000000 -0.000000 27.477603 0.000021 0.000006 -11.823099 -4.914316 -1.078568 -1.347648 0.753132 0.966539 7.455256 4.242502 0.277221 22.107827 1.350201 -0.898668 6.865020 -0.139724 1.392159 0.161749 -0.598147 1.736001 -18.838867 -1.551025 1.152970 0.000365 0.000768 0.000001 0.000374 0.000793 0.000013 0.000418 0.000779 0.000010 -13.219575 1.911456 -0.345658 -29.566817 3.215254 0.924428 -28.714269 -10.503869 -1.673570 149.945684 -1.642963 -4.776930 15.412417 -4.871845 4.655384 0.000051 -0.000077 0.000032 -18.984104 -0.885801 -0.783101 -5.886406 -0.466325 0.016278 -48.713329 3.241555 0.394580 137.274617 0.563234 2.904780 33.432680 0.547041 -2.542165 -0.000022 0.000006 0.000004 -27.009959 0.861506 2.623087 7.155250 8.838441 -9.919461 -32.445594 -1.024278 5.414145 -7.814991 -12.088366 -1.272717 32.437214 -1.385175 -4.759708 -35.713662 -1.295321 -6.370859 7.552176 15.637167 15.021555 -39.970930 2.920772 -7.241086 15.001382 -8.496883 -10.459327 23.465270 0.975625 4.695130 -8.616218 -1.686535 0.857424 -7.644682 -0.469106 1.649423 -8.656309 0.002092 1.715156 -0.919038 0.781470 6.786172 -0.958882 0.988489 6.841330 
0.000000 0.000000 0.000000 0.000006 0.000000 -0.000000 28.275182 0.000021 0.000005 -12.000644 -4.955544 -1.090286 -1.449339 0.760604 0.994656 7.446337 4.278039 0.280267 21.490663 1.393537 -0.915182 6.353378 -0.100544 1.449251 -0.067424 -0.603685 1.779907 -18.605768 -1.604906 1.155010 0.000375 0.000767 -0.000014 0.000383 0.000790 -0.000000 0.000420 0.000779 0.000011 -16.260872 2.301018 -0.257912 -22.667654 2.515719 0.561860 -34.212698 -9.988722 -1.819499 150.659356 -1.675457 -4.774484 15.840664 -4.675576 4.513859 0.000051 -0.000069 0.000028 -20.701026 -1.081723 -0.712993 -1.319469 -0.104328 0.007813 -53.191826 3.220501 0.297378 137.881425 0.579813 2.907729 33.947956 0.536696 -2.524791 -0.000022 0.000005 0.000004 -27.861878 0.913785 2.782415 7.807956 8.841860 -10.429586 -33.287087 -1.090957 5.543079 -7.766577 -12.336876 -1.325881 32.647512 -1.402731 -4.787230 -37.112140 -1.339035 -6.586875 8.805905 15.911508 15.249323 -40.615491 3.007559 -7.336749 14.931898 -8.420740 -10.533438 23.465279 0.975611 4.695140 -8.619938 -1.420327 0.720541 -7.310979 -0.385112 1.362066 -8.651364 0.010604 1.405803 1.377744 0.896955 7.580508 1.324626 1.145909 7.648303 
0.000000 0.000000 0.000000 0.000006 0.000000 -0.000000 28.921364 0.000022 0.000005 -12.023532 -4.981280 -1.086907 -1.543352 0.764504 1.015607 7.331463 4.300833 0.281272 20.961046 1.436108 -0.932661 5.911852 -0.062763 1.507442 -0.293334 -0.609006 1.826587 -18.427202 -1.651068 1.160659 0.000383 0.000767 -0.000026 0.000378 0.000792 -0.000014 0.000420 0.000779 0.000010 -19.447533 2.765492 -0.206544 -15.683759 1.767644 0.283058 -38.798992 -9.522838 -1.813398 150.797176 -1.681731 -4.773965 16.093474 -4.418985 4.398579 0.000051 -0.000061 0.000024 -22.313736 -1.294086 -0.631350 3.049427 0.240289 -0.027235 -57.127443 3.253174 0.169339 138.369633 0.593195 2.909975 34.230869 0.546068 -2.529512 -0.000024 0.000005 0.000005 -28.764713 0.964684 2.937553 8.775070 8.730157 -10.890817 -34.162284 -1.162313 5.676154 -7.834713 -12.477220 -1.377345 32.888577 -1.422978 -4.818699 -38.431719 -1.374526 -6.762332 10.213311 16.195642 15.420955 -41.302970 3.101312 -7.437717 14.838909 -8.336254 -10.607246 23.465270 0.975601 4.695151 -8.623280 -1.127590 0.569993 -6.968851 -0.292656 1.045871 -8.645867 0.019886 1.067242 3.487565 0.997660 8.265988 3.421650 1.283171 8.345082 
0.000000 0.000000 0.000000 0.000006 0.000000 -0.000000 29.401318 0.000022 0.000005 -11.869485 -4.991113 -1.066428 -1.630802 0.764693 1.028709 7.094349 4.310615 0.279932 20.509970 1.478098 -0.951103 5.540291 -0.026070 1.567454 -0.509751 -0.614298 1.876763 -18.291223 -1.689402 1.169309 0.000382 0.000766 -0.000048 0.000380 0.000788 -0.000029 0.000420 0.000778 0.000010 -22.717505 3.318772 -0.192983 -8.723684 0.993269 0.097738 -42.426830 -9.201189 -1.688953 150.447156 -1.665806 -4.775252 16.092045 -4.174857 4.294508 0.000050 -0.000052 0.000020 -23.769658 -1.507057 -0.549814 7.199467 0.564246 -0.084749 -60.636384 3.305064 0.030801 138.821956 0.605621 2.911957 34.292635 0.558168 -2.540116 -0.000026 0.000004 0.000005 -29.721155 1.013884 3.087539 10.078310 8.494992 -11.292860 -35.065204 -1.238071 5.812306 -8.034794 -12.501088 -1.424603 33.163953 -1.446272 -4.854545 -39.660265 -1.400938 -6.892949 11.781101 16.487909 15.529571 -42.033944 3.202334 -7.543855 14.721161 -8.245383 -10.680217 23.465272 0.975590 4.695163 -8.625991 -0.814339 0.409104 -6.634457 -0.193868 0.708064 -8.640001 0.029706 0.707832 5.224581 1.077442 8.803755 5.147751 1.391849 8.891961 
0.000000 0.000000 0.000000 0.000006 0.000000 -0.000000 29.700156 0.000022 0.000005 -11.516502 -4.984714 -1.027169 -1.712366 0.761121 1.033443 6.718511 4.307161 0.275963 20.128844 1.519676 -0.970548 5.238740 0.009873 1.630030 -0.711033 -0.619710 1.931157 -18.186029 -1.719952 1.180375 0.000381 0.000767 -0.000065 0.000381 0.000788 -0.000042 0.000418 0.000779 0.000011 -25.737573 3.884481 -0.184489 -2.222751 0.254257 0.010598 -45.427561 -8.979563 -1.514071 149.935862 -1.642528 -4.776959 15.950701 -3.950522 4.202159 0.000051 -0.000044 0.000016 -25.012445 -1.701145 -0.479262 11.108806 0.864815 -0.160233 -63.847789 3.339415 -0.100711 139.312131 0.619083 2.913991 34.163052 0.555439 -2.539462 -0.000026 0.000003 0.000005 -30.733860 1.061073 3.231423 11.737678 8.130889 -11.624051 -35.983267 -1.317299 5.949529 -8.386360 -12.401822 -1.463554 33.477117 -1.472971 -4.895173 -40.785747 -1.417410 -6.974450 13.515800 16.785427 15.568450 -42.807770 3.310757 -7.654829 14.576549 -8.150214 -10.751960 23.465267 0.975547 4.695201 -8.627912 -0.488911 0.241510 -6.324001 -0.090847 0.355854 -8.633841 0.039828 0.335904 6.403119 1.129980 9.154923 6.318729 1.463377 9.249220 
0.000000 0.000000 0.000000 0.000006 0.000000 -0.000000 29.803093 0.000022 0.000005 -10.942917 -4.961732 -0.967908 -1.788158 0.753810 1.029521 6.187221 4.290343 0.269064 19.809454 1.561073 -0.990996 5.007494 0.045407 1.695946 -0.891869 -0.625406 1.990513 -18.100111 -1.742923 1.193263 0.000382 0.000769 -0.000082 0.000362 0.000792 -0.000107 0.000416 0.000778 0.000010 -28.228053 4.370340 -0.156619 3.538828 -0.405384 0.003766 -48.237019 -8.780578 -1.343022 149.587809 -1.626673 -4.777999 15.789843 -3.741275 4.116770 0.000050 -0.000037 0.000012 -25.980781 -1.853486 -0.430016 14.752476 1.139673 -0.248879 -66.899435 3.317780 -0.208694 139.909841 0.635492 2.916312 33.882414 0.519559 -2.509496 -0.000021 0.000002 0.000006 -31.805541 1.105934 3.368239 13.771108 7.635906 -11.871561 -36.895910 -1.398242 6.084699 -8.913817 -12.174934 -1.488245 33.831665 -1.503467 -4.940999 -41.796000 -1.423100 -7.002569 15.423894 17.083879 15.531196 -43.622489 3.426537 -7.770103 14.401633 -8.052938 -10.822290 23.465258 0.975469 4.695272 -8.628873 -0.156192 0.070417 -6.053726 0.014283 -0.003549 -8.627562 0.050025 -0.040195 6.837337 1.148893 9.280605 6.750148 1.489126 9.377117 
